<svg xmlns="http://www.w3.org/2000/svg" viewBox="0 0 512 512" role="img" aria-label="QuizKo logo">
  <defs>
    <linearGradient id="bg" x1="0%" y1="0%" x2="100%" y2="100%">
      <stop offset="0%" stop-color="#667eea"/>
      <stop offset="100%" stop-color="#22c55e"/>
    </linearGradient>
  </defs>
  <rect width="512" height="512" rx="120" fill="url(#bg)"/>
  <circle cx="256" cy="198" r="112" fill="#ffffff" opacity="0.15"/>
  <path d="M160 180c0-44 36-80 80-80h32c44 0 80 36 80 80v100c0 44-36 80-80 80h-32c-44 0-80-36-80-80V180z" fill="#fff"/>
  <path d="M213 183h86v38h-86z" fill="#667eea"/>
  <path d="M213 243h86v18h-86zM213 275h58v18h-58z" fill="#22c55e"/>
  <circle cx="184" cy="372" r="24" fill="#fff"/>
  <circle cx="328" cy="372" r="24" fill="#fff"/>
</svg>
